<svg width="102" height="42" viewBox="0 0 102 42" fill="none" xmlns="http://www.w3.org/2000/svg">
<g clip-path="url(#clip0_2179_6182)">
<path d="M89.9718 14.3672C83.0191 19.8682 71.4708 26.3561 57.2327 32.6796H57.8886C71.7512 26.598 83.1616 20.3278 90.4232 14.9139C90.2359 14.7668 90.0819 14.5804 89.9718 14.3672Z" fill="#00ABC8"/>
<path d="M4.28188 13.4708H0V11.8984H10.4219V13.4708H6.12105V26.9451H4.28188V13.4708Z" fill="white"/>
<path d="M11.1585 11.8438H12.9977V18.2688H13.0405C13.3447 17.71 13.7999 17.2516 14.3521 16.948C14.925 16.5946 15.5832 16.4103 16.2531 16.4158C17.6122 16.4158 19.7841 17.2673 19.7841 20.8185V26.9436H17.9259V21.0314C17.9259 19.3526 17.3224 17.9689 15.5877 17.9689C15.0337 17.9793 14.4966 18.1652 14.0512 18.5008C13.6057 18.8363 13.274 19.3049 13.1023 19.8412C13.0027 20.1281 12.9606 20.4325 12.9787 20.7363V26.9436H11.1585V11.8438Z" fill="white"/>
<path d="M29.2603 24.4746C29.2513 25.2996 29.3006 26.1243 29.4076 26.9421H27.7586L27.5922 25.6455H27.5257C27.1688 26.1336 26.7019 26.5273 26.1643 26.7933C25.6267 27.0594 25.0342 27.1901 24.4367 27.1743C22.3884 27.1743 21.3429 25.7229 21.3429 24.2182C21.3429 21.7314 23.5147 20.3477 27.4211 20.3912V20.1784C27.4211 19.3268 27.193 17.7593 25.1257 17.798C24.1879 17.7873 23.267 18.0528 22.4739 18.5624L22.0557 17.3093C23.0662 16.714 24.2149 16.4049 25.3824 16.4143C28.4952 16.4143 29.246 18.5624 29.246 20.6235L29.2603 24.4746ZM27.4639 21.6879C25.4584 21.6491 23.1868 22.0072 23.1868 24.0053C23.1657 24.2421 23.1952 24.4806 23.2734 24.7046C23.3515 24.9286 23.4764 25.1327 23.6394 25.3028C23.8025 25.4729 23.9998 25.6051 24.2178 25.6901C24.4359 25.7752 24.6694 25.8111 24.9024 25.7954C25.4375 25.8063 25.9624 25.6459 26.4032 25.3369C26.844 25.0279 27.1784 24.5858 27.3594 24.0731C27.4161 23.8801 27.4433 23.6794 27.4401 23.478L27.4639 21.6879Z" fill="white"/>
<path d="M33.4044 11.8438H31.5652V26.9436H33.4044V11.8438Z" fill="white"/>
<path d="M36.8641 22.1171C36.9021 24.6475 38.4704 25.6925 40.3095 25.6925C41.2673 25.7189 42.2201 25.5444 43.1087 25.1797L43.4414 26.5005C42.3712 26.9588 41.2184 27.183 40.0577 27.1585C36.9686 27.1585 35.0867 25.0539 35.0867 21.9672C35.0867 18.8804 36.9021 16.3984 39.8391 16.3984C43.142 16.3984 43.9974 19.3545 43.9974 21.2366C44.002 21.5362 43.9814 21.8357 43.9356 22.1316L36.8641 22.1171ZM42.2295 20.777C42.2533 19.611 41.7543 17.7386 39.7012 17.7386C37.8003 17.7386 37.0304 19.4803 36.8831 20.777H42.2295Z" fill="white"/>
<path d="M45.4183 25.0528C46.1619 25.4941 47.0009 25.7418 47.8611 25.7737C49.1775 25.7737 49.8048 25.1157 49.8048 24.2448C49.8048 23.3739 49.282 22.8611 47.9466 22.3531C46.1074 21.6709 45.252 20.6694 45.252 19.4502C45.252 17.7956 46.5874 16.4312 48.7402 16.4312C49.6044 16.4091 50.4579 16.6301 51.2067 17.0698L50.7695 18.41C50.1418 18.0307 49.4274 17.8256 48.6975 17.8149C47.6139 17.8149 47.0294 18.4535 47.0294 19.218C47.0294 20.0888 47.6139 20.4711 48.9303 20.9839C50.6459 21.6274 51.5964 22.5224 51.5964 24.0755C51.5964 25.9043 50.1707 27.1767 47.8373 27.1767C46.8416 27.1916 45.8591 26.9432 44.9859 26.4558L45.4183 25.0528Z" fill="white"/>
<path d="M55.6502 22.4368L54.1865 26.9459H52.3093L57.0902 12.625H59.2857L64.0904 26.9604H62.1467L60.6259 22.4368H55.6502ZM60.2647 20.9853L58.8675 16.8584C58.5729 15.9246 58.3638 15.0731 58.1547 14.2458H58.0929C57.9076 15.0731 57.6747 15.9682 57.4038 16.839L56.0256 20.9853H60.2647Z" fill="white"/>
<path d="M67.246 11.8438H65.4068V26.9436H67.246V11.8438Z" fill="white"/>
<path d="M70.7104 22.113C70.7532 24.6434 72.3215 25.6884 74.1607 25.6884C75.1184 25.7148 76.0712 25.5403 76.9598 25.1756L77.2925 26.4964C76.2283 26.9448 75.084 27.1623 73.9325 27.135C70.8388 27.135 68.9616 25.0304 68.9616 21.9437C68.9616 18.857 70.777 16.375 73.7139 16.375C77.0121 16.375 77.8675 19.3311 77.8675 21.2132C77.8746 21.5128 77.8539 21.8125 77.8057 22.1082L70.7104 22.113ZM76.0806 20.7729C76.0806 19.6069 75.6054 17.7345 73.5524 17.7345C71.6752 17.7345 70.8768 19.4763 70.7342 20.7729H76.0806Z" fill="white"/>
<path d="M79.5071 19.4375C79.5071 18.3538 79.5071 17.5022 79.4215 16.6556H81.0611L81.1656 18.3344H81.2084C81.5396 17.7361 82.0237 17.2402 82.6094 16.8995C83.1952 16.5587 83.8606 16.3858 84.5351 16.3992C85.9323 16.3992 88.1088 17.2507 88.1088 20.7825V26.927H86.2887V21.0147C86.2887 19.3553 85.6804 17.9522 83.9505 17.9522C83.3896 17.9654 82.8473 18.1594 82.4015 18.5063C81.9557 18.8532 81.6295 19.3351 81.4698 19.8826C81.3825 20.1658 81.3408 20.4615 81.3462 20.7583V26.9463H79.5071V19.4375Z" fill="white"/>
<path d="M91.35 14.7586C91.1188 14.752 90.8947 14.6762 90.7055 14.5408C90.5163 14.4054 90.3704 14.2164 90.286 13.9972C90.2016 13.778 90.1824 13.5383 90.2308 13.3081C90.2792 13.0779 90.393 12.8673 90.5582 12.7024C90.7233 12.5376 90.9324 12.4259 91.1595 12.3812C91.3865 12.3365 91.6215 12.3608 91.8351 12.451C92.0487 12.5413 92.2315 12.6935 92.3607 12.8888C92.4899 13.084 92.5599 13.3137 92.5618 13.5491C92.5688 13.7119 92.5421 13.8744 92.4833 14.026C92.4246 14.1776 92.3351 14.3149 92.2208 14.429C92.1065 14.543 91.9699 14.6314 91.8199 14.6882C91.6698 14.745 91.5097 14.769 91.35 14.7586ZM90.4708 16.6552H92.3099V26.9459H90.4708V16.6552Z" fill="white"/>
<path d="M101.857 24.4746C101.848 25.2996 101.898 26.1242 102.005 26.9421H100.351L100.185 25.6455H100.123C99.7654 26.1343 99.2977 26.5284 98.7593 26.7945C98.2208 27.0606 97.6273 27.1908 97.029 27.1743C94.9855 27.1743 93.94 25.7229 93.94 24.2182C93.94 21.7314 96.1118 20.3477 100.018 20.3912V20.1783C100.018 19.3268 99.7901 17.7593 97.7181 17.798C96.7804 17.7881 95.8597 18.0535 95.0663 18.5624L94.6481 17.3093C95.6587 16.7142 96.8073 16.4052 97.9747 16.4143C101.083 16.4143 101.838 18.5624 101.838 20.6235L101.857 24.4746ZM100.071 21.6878C98.065 21.6491 95.7934 22.0072 95.7934 24.0053C95.7715 24.2418 95.8004 24.4803 95.878 24.7043C95.9556 24.9283 96.08 25.1324 96.2427 25.3027C96.4054 25.4729 96.6025 25.6051 96.8203 25.6902C97.0381 25.7753 97.2715 25.8112 97.5043 25.7954C98.0443 25.8132 98.5759 25.656 99.0226 25.3464C99.4693 25.0369 99.8079 24.591 99.9897 24.0731C100.048 23.8803 100.077 23.6796 100.075 23.478L100.071 21.6878Z" fill="white"/>
<path d="M67.0083 37.4541C67.6337 37.8806 68.3704 38.1065 69.1231 38.1024C70.2495 38.1024 71.2855 37.4251 71.2855 36.2058C71.2855 35.4366 70.8673 34.8802 69.817 34.3093C68.5481 33.6029 67.8352 32.7853 67.8352 31.7015C67.8352 29.8775 69.375 28.7212 71.2094 28.7212C71.9261 28.695 72.6351 28.878 73.2529 29.2486L72.8062 30.2694C72.29 29.9481 71.6957 29.7805 71.0906 29.7856C69.8503 29.7856 69.1089 30.6129 69.1089 31.4403C69.1089 32.2676 69.6126 32.7369 70.6629 33.3223C71.889 34.0045 72.5638 34.8028 72.5638 36.0365C72.5638 37.7976 71.2189 39.1861 68.9711 39.1861C68.1262 39.2018 67.2969 38.9536 66.5949 38.4749L67.0083 37.4541Z" fill="#00ABC8"/>
<path d="M73.0724 42.0032L74.4981 34.3202C74.6644 33.4445 74.8117 32.4527 74.8973 31.7125H76.0236L75.8335 33.101H75.862C76.1332 32.648 76.5103 32.2704 76.9598 32.0019C77.4093 31.7335 77.917 31.5825 78.4378 31.5625C79.9728 31.5625 80.6239 32.8591 80.6239 34.1993C80.6239 36.7732 78.8227 39.1874 76.437 39.1874C75.9043 39.2108 75.3744 39.0959 74.8973 38.8536H74.883L74.308 42.0032H73.0724ZM75.0874 37.7989C75.4878 38.0866 75.9713 38.2297 76.4608 38.2053C78.0481 38.2053 79.3645 36.2023 79.3645 34.2912C79.3645 33.522 79.0366 32.6027 77.9863 32.6027C77.0358 32.6027 75.8287 33.7155 75.458 35.7669L75.0874 37.7989Z" fill="#00ABC8"/>
<path d="M86.2887 39.0229C86.3108 38.3932 86.3647 37.765 86.4502 37.1409H86.4217C85.6376 38.6649 84.6443 39.1923 83.6368 39.1923C82.3632 39.1923 81.5791 38.1666 81.5791 36.7732C81.5791 34.2283 83.4182 31.5625 86.5263 31.5625C87.1689 31.567 87.8081 31.6581 88.4272 31.8334L87.7144 35.6507C87.5006 36.7662 87.4003 37.9011 87.415 39.0374L86.2887 39.0229ZM87.0728 32.6656C86.7976 32.5878 86.5123 32.5535 86.2269 32.564C84.3782 32.564 82.8527 34.4993 82.8527 36.5555C82.8527 37.3683 83.1331 38.1666 84.0693 38.1666C85.1053 38.1666 86.3172 36.8119 86.6593 34.867L87.0728 32.6656Z" fill="#00ABC8"/>
<path d="M94.1443 38.7484C93.4975 39.061 92.7882 39.2166 92.0723 39.2032C90.2236 39.2032 89.3207 37.9356 89.3207 36.3826C89.3207 33.8861 91.1266 31.5783 93.7024 31.5783C94.2177 31.5733 94.7275 31.6857 95.1946 31.9073L94.8429 32.8749C94.4623 32.6934 94.0466 32.6008 93.6263 32.604C91.7634 32.604 90.5943 34.4715 90.5943 36.2036C90.5943 37.3937 91.1979 38.1388 92.3717 38.1388C92.9464 38.1347 93.5123 37.9956 94.0255 37.7324L94.1443 38.7484Z" fill="#00ABC8"/>
<path d="M100.513 38.6117C99.7784 38.9978 98.9626 39.1955 98.1363 39.1874C96.2354 39.1874 95.4085 37.8618 95.4085 36.2458C95.4085 34.0493 97.01 31.5625 99.3197 31.5625C100.679 31.5625 101.42 32.3898 101.42 33.4445C101.42 35.3798 99.3007 35.8636 96.6679 35.8104C96.6118 36.2786 96.6622 36.7537 96.8152 37.1989C96.9506 37.5084 97.1768 37.7675 97.4627 37.9408C97.7486 38.114 98.0802 38.1929 98.412 38.1666C99.0833 38.1728 99.7454 38.0064 100.337 37.6828L100.513 38.6117ZM100.246 33.4591C100.246 32.8736 99.7997 32.5398 99.1486 32.5398C97.9795 32.5398 97.1051 33.701 96.8104 34.8476C98.7351 34.8766 100.246 34.6057 100.246 33.4784V33.4591Z" fill="#00ABC8"/>
<path d="M5.07554 36.5476C5.00987 36.6565 4.91363 36.7428 4.79926 36.7954C4.68488 36.8481 4.55764 36.8645 4.43397 36.8427C4.00626 36.8427 3.74963 36.7411 3.85418 36.1557C3.95873 35.5703 4.21536 35.4929 4.68585 35.4929C4.91396 35.4929 5.16108 35.4929 5.20385 35.7396L5.25613 35.459C5.31791 35.1107 5.31791 34.9752 4.93772 34.9752C4.74287 34.9752 4.58129 34.9752 4.52902 35.2752H4.07279C4.1916 34.6462 4.57179 34.6172 5.02326 34.6172C5.62681 34.6172 5.85968 34.7285 5.72661 35.4494L5.47474 36.804H5.02326L5.07554 36.5476ZM4.3009 36.1557C4.24388 36.4605 4.34843 36.4896 4.65258 36.4896C4.95673 36.4896 5.07554 36.4896 5.12782 36.1557C5.18009 35.8219 4.99 35.8461 4.76664 35.8461C4.54327 35.8461 4.35318 35.8461 4.2914 36.1557" fill="white"/>
<path d="M8.26912 36.8163H7.75111L8.23585 34.1408H7.44696L7.52775 33.7344H9.6283L9.54751 34.1408H8.75386L8.26912 36.8163Z" fill="white"/>
<path d="M10.037 35.0492C10.0928 34.9315 10.1845 34.8354 10.2985 34.7752C10.4124 34.715 10.5424 34.6941 10.6691 34.7154C11.1443 34.7154 11.2489 34.938 11.1443 35.446L10.9162 36.8103H10.4837L10.7261 35.4895C10.7831 35.1895 10.7261 35.0879 10.46 35.0879C10.0798 35.0879 9.98472 35.296 9.92294 35.6637L9.70909 36.8103H9.30038L9.87067 33.7188H10.3079L10.037 35.0492Z" fill="white"/>
<path d="M12.5748 36.5573C12.5118 36.6624 12.4192 36.7458 12.309 36.7967C12.1988 36.8476 12.0762 36.8636 11.957 36.8427C11.5483 36.8427 11.3011 36.7411 11.4009 36.1799C11.5007 35.6186 11.7479 35.5412 12.1993 35.5412C12.4227 35.5412 12.6365 35.5412 12.6746 35.7831L12.7221 35.5122C12.7886 35.1735 12.7839 35.0574 12.4227 35.0574C12.2326 35.0574 12.0758 35.0574 12.0235 35.3477H11.591C11.7003 34.7381 12.0663 34.7188 12.4845 34.7188C13.0643 34.7188 13.2876 34.8204 13.1593 35.517L12.9455 36.8137H12.513L12.5748 36.5573ZM11.8286 36.1799C11.7764 36.4702 11.8762 36.4992 12.1661 36.4992C12.456 36.4992 12.5748 36.4992 12.6413 36.1799C12.7078 35.8606 12.513 35.8847 12.2944 35.8847C12.0758 35.8847 11.8999 35.8847 11.8191 36.1799" fill="white"/>
<path d="M13.8151 36.8095H13.3779L13.9292 33.8438H14.3664L13.8151 36.8095Z" fill="white"/>
<path d="M15.987 36.1557C15.8634 36.8088 15.5117 36.8427 15.0365 36.8427C14.3379 36.8427 14.2428 36.5863 14.3949 35.7831C14.547 34.98 14.6943 34.7188 15.4262 34.7188C16.158 34.7188 16.2293 34.9655 16.063 35.8702H14.7894C14.7086 36.3202 14.6896 36.4605 15.0793 36.4605C15.3216 36.4605 15.4927 36.4605 15.5545 36.1557H15.987ZM15.659 35.5558C15.7398 35.13 15.6923 35.0719 15.3359 35.0719C14.9794 35.0719 14.9177 35.1639 14.8606 35.5558H15.659Z" fill="white"/>
<path d="M17.6028 35.3042C17.6455 35.0574 17.5315 35.0574 17.2986 35.0574C17.0657 35.0574 16.9089 35.0574 16.8614 35.3284C16.8139 35.5993 16.8614 35.5412 17.2463 35.5654C17.6313 35.5896 18.059 35.5654 17.9307 36.2234C17.8261 36.7846 17.4554 36.8427 16.9802 36.8427C16.505 36.8427 16.1533 36.8427 16.2769 36.1654H16.7141C16.6665 36.4653 16.7141 36.4992 17.042 36.4992C17.3699 36.4992 17.4554 36.4992 17.5172 36.2234C17.5505 36.0444 17.5552 35.9525 17.118 35.9428C16.4527 35.9428 16.3481 35.8267 16.4479 35.2993C16.5477 34.772 16.9232 34.7188 17.3984 34.7188C17.7548 34.7188 18.1778 34.7187 18.0685 35.3042H17.6028Z" fill="white"/>
<path d="M19.4324 37.2595H19.0427L21.6803 33.8438H22.07L19.4324 37.2595Z" fill="white"/>
<path d="M23.5337 36.3257H24.7456L24.6553 36.8095H22.9444L23.4957 33.8438H23.9899L23.5337 36.3257Z" fill="white"/>
<path d="M26.6228 36.1557C26.4992 36.8088 26.1475 36.8427 25.6723 36.8427C24.9737 36.8427 24.8786 36.5863 25.0307 35.7831C25.1828 34.98 25.3301 34.7188 26.062 34.7188C26.7938 34.7188 26.8651 34.9655 26.6988 35.8702H25.4489C25.3681 36.3202 25.3491 36.4605 25.7388 36.4605C25.9812 36.4605 26.1523 36.4605 26.2141 36.1557H26.6228ZM26.2948 35.5558C26.3756 35.13 26.3281 35.0719 25.9717 35.0719C25.6153 35.0719 25.5535 35.1639 25.4964 35.5558H26.2948Z" fill="white"/>
<path d="M28.69 35.7831C28.5427 36.5863 28.4001 36.8427 27.6398 36.8427C26.8794 36.8427 26.8319 36.5863 26.9839 35.7831C27.136 34.98 27.2786 34.7188 28.0342 34.7188C28.7898 34.7188 28.8421 34.9752 28.69 35.7831ZM27.4164 35.7831C27.3166 36.3395 27.3261 36.4605 27.711 36.4605C28.096 36.4605 28.153 36.3395 28.2528 35.7831C28.3526 35.2268 28.3526 35.0961 27.9629 35.0961C27.5732 35.0961 27.5209 35.2219 27.4164 35.7831Z" fill="white"/>
<path d="M29.6833 34.7384L29.6262 35.0529C29.682 34.9352 29.7737 34.8391 29.8877 34.7789C30.0016 34.7187 30.1317 34.6977 30.2583 34.7191C30.7335 34.7191 30.8381 34.9416 30.7335 35.4496L30.4769 36.8188H30.0444L30.2868 35.498C30.3438 35.198 30.2868 35.0964 30.0207 35.0964C29.6405 35.0964 29.5454 35.3045 29.4837 35.6722L29.2698 36.8188H28.8373L29.2223 34.7384H29.6833Z" fill="white"/>
<path d="M32.164 36.5573C32.101 36.6624 32.0084 36.7458 31.8982 36.7967C31.7881 36.8476 31.6654 36.8636 31.5462 36.8427C31.1375 36.8427 30.8904 36.7411 30.9902 36.1799C31.09 35.6186 31.3371 35.5412 31.7886 35.5412C32.0119 35.5412 32.2258 35.5412 32.2638 35.7831L32.3113 35.5122C32.3731 35.1735 32.3731 35.0574 32.0119 35.0574C31.8218 35.0574 31.665 35.0574 31.6127 35.3477H31.1803C31.2896 34.7381 31.6555 34.7188 32.0737 34.7188C32.6535 34.7188 32.8769 34.8204 32.7485 35.517L32.5062 36.8185H32.1117L32.164 36.5573ZM31.4179 36.1799C31.3656 36.4702 31.4654 36.4992 31.7553 36.4992C32.0452 36.4992 32.164 36.4992 32.2305 36.1799C32.2971 35.8606 32.1022 35.8847 31.8836 35.8847C31.665 35.8847 31.4892 35.8847 31.4321 36.1799" fill="white"/>
<path d="M33.7465 34.7396L33.6847 35.0154C33.7384 34.9191 33.8178 34.8402 33.9137 34.788C34.0096 34.7358 34.118 34.7123 34.2265 34.7203C34.6115 34.7203 34.6542 34.9815 34.5829 35.3686L34.5497 35.5379H34.1457V35.4315C34.1837 35.2186 34.1885 35.0977 33.9841 35.0977C33.7798 35.0977 33.6182 35.267 33.5754 35.5379L33.3378 36.82H32.9006L33.2855 34.7396H33.7465Z" fill="white"/>
<path d="M35.8804 36.4999C35.8202 36.6129 35.7285 36.7054 35.6169 36.7656C35.5053 36.8259 35.3787 36.8513 35.253 36.8386C34.5782 36.8386 34.6495 36.3548 34.7778 35.7113C34.9061 35.0678 35.0392 34.7146 35.6617 34.7146C35.8804 34.7146 36.1037 34.7582 36.137 35.0146L36.3508 33.8438H36.7881L36.2415 36.8095H35.8091L35.8804 36.4999ZM35.1865 35.7113C35.101 36.1951 35.0392 36.4564 35.4384 36.4564C35.8376 36.4564 35.9136 36.2096 36.0039 35.7113C36.0942 35.2129 36.0657 35.092 35.6903 35.092C35.3909 35.092 35.2816 35.1888 35.1865 35.7113Z" fill="white"/>
<path d="M38.5084 35.7831C38.3611 36.5863 38.2138 36.8427 37.4581 36.8427C36.7025 36.8427 36.6502 36.5863 36.7976 35.7831C36.9449 34.98 37.0922 34.7188 37.8526 34.7188C38.613 34.7188 38.6557 34.9752 38.5084 35.7831ZM37.2348 35.7831C37.1302 36.3395 37.1397 36.4605 37.5294 36.4605C37.9191 36.4605 37.9714 36.3395 38.0712 35.7831C38.171 35.2268 38.1662 35.0961 37.7813 35.0961C37.3964 35.0961 37.3393 35.2219 37.2348 35.7831Z" fill="white"/>
<path d="M41.7543 35.9972C41.6212 36.7035 41.3741 36.8438 40.7373 36.8438C40.1004 36.8438 39.9341 36.6116 40.0957 35.7407C40.2335 34.986 40.4046 34.6328 41.146 34.6328C41.7067 34.6328 41.9871 34.7344 41.8588 35.4166H41.4074C41.4691 35.0876 41.4074 35.0295 41.0699 35.0295C40.7325 35.0295 40.6517 35.1844 40.5472 35.7407C40.4426 36.2971 40.4094 36.4471 40.8086 36.4471C41.2078 36.4471 41.2315 36.3745 41.2838 35.9972H41.7543Z" fill="white"/>
<path d="M43.8453 35.7359C43.6932 36.5729 43.5412 36.839 42.7523 36.839C41.9634 36.839 41.9159 36.5729 42.0679 35.7359C42.22 34.8989 42.3721 34.6328 43.161 34.6328C43.9499 34.6328 44.0022 34.8989 43.8453 35.7359ZM42.5194 35.7359C42.4149 36.3116 42.4244 36.4374 42.8283 36.4374C43.2323 36.4374 43.3036 36.3116 43.3891 35.7359C43.4746 35.1602 43.4937 35.0199 43.0897 35.0199C42.6858 35.0199 42.6145 35.1505 42.5194 35.7359Z" fill="white"/>
<path d="M44.8671 34.6603L44.8101 34.97C44.8774 34.8571 44.9747 34.7659 45.0907 34.7069C45.2068 34.6478 45.3368 34.6233 45.4659 34.6361C45.7035 34.6361 45.9649 34.7039 45.9411 35.0183C46.0029 34.8941 46.0997 34.7914 46.219 34.7234C46.3383 34.6553 46.4749 34.6249 46.6112 34.6361C47.0864 34.6361 47.2243 34.8248 47.1292 35.357L46.8583 36.8085H46.3831L46.6445 35.3957C46.6872 35.1248 46.6445 35.0183 46.3974 35.0183C46.0314 35.0183 45.9221 35.207 45.8556 35.5893L45.6275 36.8085H45.176L45.4374 35.3957C45.4754 35.1248 45.4374 35.0183 45.1903 35.0183C44.8243 35.0183 44.715 35.207 44.6437 35.5893L44.4679 36.8133H44.0164L44.4156 34.6555L44.8671 34.6603Z" fill="white"/>
<path d="M48.1129 34.9845C48.1771 34.8678 48.2733 34.7726 48.3898 34.7107C48.5063 34.6489 48.638 34.6229 48.7688 34.6362C49.4721 34.6362 49.3961 35.12 49.2773 35.8022C49.1585 36.4844 49.0064 36.8424 48.3601 36.8424C48.1272 36.8424 47.8848 36.794 47.8516 36.5279L47.6234 37.752H47.172L47.7422 34.6604H48.2175L48.1129 34.9845ZM48.8353 35.8022C48.9256 35.3184 48.9921 35.0281 48.5787 35.0281C48.1652 35.0281 48.0749 35.2893 47.9799 35.8022C47.8848 36.315 47.9228 36.4457 48.3125 36.4457C48.6262 36.4457 48.7355 36.3441 48.8353 35.8022Z" fill="white"/>
<path d="M50.7743 36.5476C50.7086 36.6565 50.6123 36.7428 50.498 36.7954C50.3836 36.8481 50.2564 36.8645 50.1327 36.8427C49.705 36.8427 49.4483 36.7411 49.5576 36.1557C49.667 35.5703 49.9188 35.4929 50.3846 35.4929C50.6127 35.4929 50.8598 35.4929 50.9026 35.7396L50.9548 35.459C51.0214 35.1107 51.0166 34.9752 50.6412 34.9752C50.4416 34.9752 50.28 34.9752 50.2277 35.2752H49.7525C49.8665 34.6462 50.2515 34.6172 50.703 34.6172C51.3113 34.6172 51.5394 34.7285 51.4063 35.4494L51.1544 36.804H50.703L50.7743 36.5476ZM49.9949 36.1557C49.9378 36.4605 50.0424 36.4896 50.3465 36.4896C50.6507 36.4896 50.7695 36.4896 50.8218 36.1557C50.8741 35.8219 50.684 35.8461 50.4606 35.8461C50.2372 35.8461 50.0471 35.8461 49.9854 36.1557" fill="white"/>
<path d="M52.4566 34.6573L52.3996 34.9815C52.4573 34.8591 52.5524 34.7591 52.6706 34.6963C52.7888 34.6336 52.9238 34.6114 53.0554 34.6331C53.5544 34.6331 53.6589 34.8654 53.5639 35.3927L53.2978 36.8151H52.8225L53.0744 35.4459C53.1314 35.1315 53.0744 35.025 52.7988 35.025C52.4043 35.025 52.3235 35.2379 52.238 35.625L52.0717 36.8103H51.5964L51.9956 34.6525L52.4566 34.6573Z" fill="white"/>
<path d="M54.79 36.9071C54.5951 37.3909 54.4336 37.778 53.9061 37.778C53.8443 37.778 53.7777 37.778 53.716 37.778L53.7872 37.3909H53.8823C54.1674 37.3909 54.2672 37.0813 54.3575 36.8297H54.1389L53.9156 34.6719H54.3908L54.5286 36.5055L55.2367 34.6719H55.712L54.79 36.9071Z" fill="white"/>
<path d="M98.8824 3.49612C96.8199 -2.41126 76.2042 -0.587279 49.4008 7.1199C75.2965 -0.137331 95.0235 -1.74843 97.0338 4.01864C97.7704 6.12808 96.0833 8.99226 92.4002 12.3209C92.6113 12.4932 92.775 12.7183 92.8754 12.9741C97.4615 9.14709 99.6856 5.84747 98.8634 3.49612" fill="#00ABC8"/>
</g>
<defs>
<clipPath id="clip0_2179_6182">
<rect width="102" height="42" fill="white"/>
</clipPath>
</defs>
</svg>